<?xml version="1.0" encoding="iso-8859-1"?>
<!-- Generator: Adobe Illustrator 19.0.0, SVG Export Plug-In . SVG Version: 6.00 Build 0)  -->
<svg version="1.1" id="Layer_1" xmlns="http://www.w3.org/2000/svg" xmlns:xlink="http://www.w3.org/1999/xlink" x="0px" y="0px"
	 viewBox="0 0 512 512" style="enable-background:new 0 0 512 512;" xml:space="preserve">
<path style="fill:#FFDB2D;" d="M472.187,488.107H39.813C17.86,488.107,0,470.247,0,448.294V162.702
	c0-9.425,7.641-17.067,17.067-17.067h477.867c9.425,0,17.067,7.641,17.067,17.067v285.591
	C512,470.247,494.14,488.107,472.187,488.107z"/>
<g>
	<path style="fill:#FF9900;" d="M494.933,145.636H256v342.471h216.187c21.953,0,39.813-17.86,39.813-39.813V162.702
		C512,153.277,504.359,145.636,494.933,145.636z"/>
	<polygon style="fill:#FF9900;" points="512,317.44 401.636,317.44 401.636,145.636 367.502,145.636 367.502,317.44 273.067,317.44 
		273.067,145.636 238.933,145.636 238.933,317.44 145.636,317.44 145.636,145.636 111.502,145.636 111.502,317.44 0,317.44 
		0,350.436 111.502,350.436 111.502,488.107 145.636,488.107 145.636,350.436 238.933,350.436 238.933,488.107 273.067,488.107 
		273.067,350.436 367.502,350.436 367.502,488.107 400.498,488.107 400.498,351.573 512,351.573 	"/>
</g>
<g>
	<polygon style="fill:#FF4F19;" points="400.498,317.44 400.498,145.636 367.502,145.636 367.502,317.44 273.067,317.44 
		273.067,145.636 256,145.636 256,488.107 273.067,488.107 273.067,350.436 367.502,350.436 367.502,488.107 400.498,488.107 
		400.498,351.573 512,351.573 512,317.44 	"/>
	<path style="fill:#FF4F19;" d="M512,179.769H0V94.438c0-21.994,17.83-39.825,39.824-39.825h432.351
		c21.994,0,39.824,17.83,39.824,39.825V179.769z"/>
</g>
<path style="fill:#816142;" d="M126.293,119.467c-9.425,0-17.067-7.641-17.067-17.067V40.96c0-9.425,7.641-17.067,17.067-17.067
	s17.067,7.641,17.067,17.067v61.44C143.36,111.825,135.719,119.467,126.293,119.467z"/>
<path style="fill:#FC0023;" d="M512,94.438c0-21.994-17.83-39.825-39.824-39.825H256v125.156h256V94.438z"/>
<path style="fill:#543F29;" d="M385.707,119.467c-9.425,0-17.067-7.641-17.067-17.067V40.96c0-9.425,7.641-17.067,17.067-17.067
	c9.425,0,17.067,7.641,17.067,17.067v61.44C402.773,111.825,395.132,119.467,385.707,119.467z"/>
<g>
</g>
<g>
</g>
<g>
</g>
<g>
</g>
<g>
</g>
<g>
</g>
<g>
</g>
<g>
</g>
<g>
</g>
<g>
</g>
<g>
</g>
<g>
</g>
<g>
</g>
<g>
</g>
<g>
</g>
</svg>
